<svg xmlns="http://www.w3.org/2000/svg" viewBox="0 0 427.73 54.79"><defs><style>.cls-1{fill:#231f20;}.cls-1,.cls-2{fill-rule:evenodd;}.cls-2{fill:#00a0df;}</style></defs><g id="Layer_2" data-name="Layer 2"><g id="Capa_1" data-name="Capa 1"><path class="cls-1" d="M89.73,29l.4,4.92c1.5,2.58,5.87,4.31,8.78,4.31,4.76,0,8.79-2.51,8.79-7.38,0-2.41-1.46-4.25-4.65-5.21l-7.83-2.34c-4.7-1.4-8.17-4.7-8.17-9.52,0-9,6.66-12.36,14.77-12.36a28.77,28.77,0,0,1,10.41,1.9l.28.67a31.72,31.72,0,0,0-.78,8h-2.3l-.33-4.59a10.62,10.62,0,0,0-7.45-3.08c-5.2,0-7.66,3-7.66,6.77,0,2.52,1.79,4.36,5.93,5.43l6.38,1.68c5.15,1.34,8.45,4.59,8.45,9.62,0,9.52-7.89,13.49-16.4,13.49A26.93,26.93,0,0,1,86.66,38.7,47.94,47.94,0,0,0,87.5,29Z"/><path class="cls-1" d="M120.58,22.48c0-3.19-.12-3.81-1.46-3.92l-2.52-.17v-2c3.86-.12,7.17-1.35,10.47-2.41l.33.34V18.5L131.88,15A6.63,6.63,0,0,1,136.13,14c3.25,0,6.05,1.4,7.11,4.53L147.72,15A6.62,6.62,0,0,1,152,14c5.93,0,7.78,3,7.78,10.35V34.73a9.49,9.49,0,0,0,.22,2.63c.17.56.62.84,1.79,1l1.85.11v2.07c-2-.06-3.69-.16-5.49-.16s-3.47.1-5.2.16V25.27c0-2.74-.45-4.19-1.45-5.2a4.8,4.8,0,0,0-3.53-1.29c-2.29,0-4.36,2.18-4.36,3.81V34.73a9.49,9.49,0,0,0,.22,2.63c.16.56.61.84,1.79,1l2,.11v2.07c-2.41-.06-4.76-.16-7.56-.16-2.46,0-4.81.1-7,.16V38.42l1.73-.11c1.18-.05,1.63-.39,1.79-1a9.38,9.38,0,0,0,.23-2.63V25.27c0-2.74-.45-4.19-1.46-5.2a4.76,4.76,0,0,0-3.52-1.29c-2.3,0-4.37,2.18-4.37,3.81V34.73a9.38,9.38,0,0,0,.23,2.63c.16.56.61.84,1.79,1l1.51.11v2.07c-2-.06-4.31-.16-7.11-.16-2.46,0-4.81.1-7.22.16V38.42l2-.11c1.18-.11,1.62-.39,1.79-1a9.38,9.38,0,0,0,.23-2.63Z"/><path class="cls-1" d="M165.33,22.48c0-3.19-.11-3.81-1.45-3.92l-2.53-.17v-2a35.12,35.12,0,0,0,6.33-1.18L171.6,14l.56.34v14.6c0,3.64.22,7.33,4.53,7.33a5.8,5.8,0,0,0,4.7-2.85,4.23,4.23,0,0,0,.5-2.19V22.48c0-3.19-.11-3.81-1.45-3.92l-2.52-.17v-2a35,35,0,0,0,6.32-1.18L188.16,14l.56.34V34.73a9.9,9.9,0,0,0,.22,2.63c.17.56.61.84,1.79,1l1.85.11v2.07c-2.29-.06-4.65-.16-6.21-.16-1,0-2.52.1-4.76.16l.28-4.64L177.64,40a5.39,5.39,0,0,1-3.58,1.29c-6.16,0-8.73-3.47-8.73-8.79Z"/><path class="cls-1" d="M198.28,22.44c0-3.19-.11-3.81-1.45-3.92l-2.52-.17v-2a34.32,34.32,0,0,0,6.32-1.18l3.92-1.23.56.34v5.31l2.46-2.68c1.62-1.74,2.85-3,4.42-3a6,6,0,0,1,2.41.34l-.28,7.22-1.34.56a3.51,3.51,0,0,0-3.31-2c-2.18,0-4.36,2-4.36,3.58V34.69a10,10,0,0,0,.22,2.64c.17.55,1.29.89,2.46.94l2.19.12v2.07c-3.3-.06-5.66-.17-8.45-.17-2.47,0-4.81.11-7.22.17V38.39l2-.12c1.17-.11,1.62-.39,1.79-.94a9.57,9.57,0,0,0,.22-2.64Z"/><path class="cls-1" d="M235.43,5.76l-.89.4A7.14,7.14,0,0,0,231,4.81c-3.46,0-3.52,2.24-3.52,5.15v6c2.52,0,5.09-.11,7.33-.22l.22.45-.61,3.24h-6.94V34.69a9.85,9.85,0,0,0,.22,2.63c.17.56,1.4.9,2.57,1l2.53.12v2.07c-3.75-.06-6.11-.17-8.9-.17-2.47,0-4.82.11-7.89.17V38.39l2.29-.12c1.17-.05,2-.39,2.13-1a9.44,9.44,0,0,0,.22-2.63V19.47l-4.42.28V18.41a28.34,28.34,0,0,0,4.42-2.52V13.48c0-4.41.28-5.31,3.08-7.66l4.14-3.47C230.51.17,231.69,0,233.14,0a7.89,7.89,0,0,1,2.29.34Z"/><path class="cls-1" d="M241.55,22.44c0-3.19-.11-3.81-1.46-3.92l-2.52-.17v-2a34.27,34.27,0,0,0,6.33-1.18l3.92-1.23.55.34V34.69a9.46,9.46,0,0,0,.23,2.64c.17.55.61.83,1.79.94l2,.12v2.07c-2.41-.06-4.76-.17-7.56-.17-2.46,0-4.81.11-7.22.17V38.39l2-.12c1.17-.11,1.62-.39,1.78-.94a9.46,9.46,0,0,0,.23-2.64V22.44ZM248.93,5a4.2,4.2,0,0,1-8.39,0,4.2,4.2,0,1,1,8.39,0Z"/><path class="cls-1" d="M255.52,19.42l-3.58.22V18.41l3.7-2.4V12.65c0-1.74-.12-3.41-.23-5.15,2.46-.89,5.15-2,6.83-2.8l.78.56a40.82,40.82,0,0,0-.67,7.61v3.25l6.38-.34-.45,3.64h-5.93V32.74c0,2.85.95,3.63,3.47,3.63a5,5,0,0,0,2.58-.73l.44,1.07L266.1,40c-.39.5-1.62,1-3.42,1-5.09,0-7.16-2.07-7.16-7.11Z"/><path class="cls-1" d="M282.88,10c0-2.35-.05-3.87-.39-4.54-.22-.44-.84-.67-2.29-.78l-2.07-.17V2.26c2.29.05,5.37.16,8.73.16s6.38-.11,8.67-.16V4.49l-2.07.17c-1.45.11-2.07.34-2.29.78-.34.67-.4,2.19-.4,4.54V20.33c0,.22.23.33.51.33L301.8,10.37c1.34-1.34,3.08-3.3,4.36-4.7a3,3,0,0,0,.9-2V2.26c1.67.05,3.41.16,5.09.16s3.41-.11,5.09-.16V4.44c-2.35.22-4.47.33-6.15,1.9L298.66,17.92l14.89,17.52a6.51,6.51,0,0,0,5.09,2.8v2.29c-1.9-.06-3.75-.17-5.65-.17s-3.8.11-5.71.17L295.64,26.59c-1.28-1.56-3.19-3.91-4.25-4.41a.5.5,0,0,0-.62.5V32.81c0,2.35.06,3.86.4,4.53.22.45.84.67,2.29.78l2.07.17v2.24c-2.29-.06-5.37-.17-8.67-.17s-6.44.11-8.73.17V38.29l2.07-.17c1.45-.11,2.07-.33,2.29-.78.34-.67.39-2.18.39-4.53Z"/><path class="cls-1" d="M334,25c0-3.91-1.62-6.6-5.82-6.6-.94,0-2.9.28-3.13.78L323.78,22l-1.68-.39V17.7l3-1.79A12.5,12.5,0,0,1,331.56,14c4.92,0,9.4,2.19,9.23,8.18-.06,2.29-.17,4.58-.17,6.88s.11,4.64.17,6.94c.06,1.4.4,2.18,1.51,2.29l1.68.17v2.07c-1.79-.06-3.3-.17-4.92-.17s-3.14.11-5.1.17l-.28-.45.28-3.47-5.2,4a4.92,4.92,0,0,1-3.08.67c-4.14,0-6.21-2.85-6.21-6.83,0-2.18.67-4.64,2.57-5.93A19.63,19.63,0,0,1,329,26L334,25Zm0,2.35-2.51.67c-3,.84-5.15,1.46-5.15,5.09,0,2.36,1.34,3.36,3,3.36A6.81,6.81,0,0,0,334,33.93Z"/><path class="cls-1" d="M346.33,22.51c0-3.19-.11-3.8-1.45-3.92l-2.52-.16v-2a35.15,35.15,0,0,0,6.32-1.17L352.6,14l.56.33v4.59l3.41-2.74A8.34,8.34,0,0,1,362.39,14c5.93,0,10.07,4.53,10.07,10.4a18.23,18.23,0,0,1-1.28,6.44,13.21,13.21,0,0,1-4.09,5.48c-1.34,1-2.8,2.24-4.36,3.25a8.78,8.78,0,0,1-4.59,1.73,18.11,18.11,0,0,1-5-1V49a9.44,9.44,0,0,0,.22,2.63c.17.57.62.9,1.79,1l2.52.11v2.07c-3,0-5.31-.16-8.11-.16-2.47,0-4.82.11-7.22.16V52.72l2-.11c1.17-.11,1.62-.38,1.79-1a9.85,9.85,0,0,0,.22-2.63V22.51Zm6.83,11.92a6.69,6.69,0,0,0,5.71,3.08c5.2,0,6.54-5.6,6.54-9.79,0-4.48-2-8.68-7-8.68a6.25,6.25,0,0,0-5.26,2.8Z"/><path class="cls-1" d="M376.6,22.51c0-3.19-.12-3.8-1.46-3.92l-2.52-.16v-2A35.09,35.09,0,0,0,379,15.24L382.86,14l.56.33v4.59l3.42-2.74A8.32,8.32,0,0,1,392.66,14c5.93,0,10.07,4.53,10.07,10.4a18,18,0,0,1-1.29,6.44,13.2,13.2,0,0,1-4.08,5.48c-1.35,1-2.8,2.24-4.37,3.25a8.72,8.72,0,0,1-4.59,1.73,18.18,18.18,0,0,1-5-1V49a9.33,9.33,0,0,0,.23,2.63c.17.57.61.9,1.79,1l2.52.11v2.07c-3,0-5.32-.16-8.12-.16-2.46,0-4.81.11-7.22.16V52.72l2-.11c1.18-.11,1.62-.38,1.79-1A9.33,9.33,0,0,0,376.6,49V22.51Zm6.82,11.92a6.71,6.71,0,0,0,5.71,3.08c5.2,0,6.55-5.6,6.55-9.79,0-4.48-2-8.68-7-8.68a6.28,6.28,0,0,0-5.26,2.8Z"/><path class="cls-1" d="M417.71,25c0-3.91-1.62-6.6-5.82-6.6-.95,0-2.91.28-3.13.78L407.53,22l-1.68-.39V17.7l3-1.79a12.56,12.56,0,0,1,6.5-1.91c4.92,0,9.4,2.19,9.23,8.18-.06,2.29-.17,4.58-.17,6.88s.11,4.64.17,6.94c0,1.4.39,2.18,1.51,2.29l1.68.17v2.07c-1.79-.06-3.3-.17-4.93-.17s-3.13.11-5.09.17l-.28-.45.28-3.47-5.2,4a4.92,4.92,0,0,1-3.08.67c-4.14,0-6.21-2.85-6.21-6.83,0-2.18.67-4.64,2.57-5.93a19.63,19.63,0,0,1,7-2.57l4.92-1Zm0,2.35L415.2,28c-3,.84-5.15,1.46-5.15,5.09,0,2.36,1.34,3.36,3,3.36a6.81,6.81,0,0,0,4.64-2.51Z"/><path class="cls-2" d="M77.19,18.38C77,12.84,75.45,1.57,66.42,1.48h-.13c-.11,0-.21,0-.32,0H11.32c-.11,0-.21,0-.32,0h-.13C1.84,1.57.3,12.84.1,18.38,0,19.3,0,20.48,0,21.76c0,1.5.05,2.84.13,3.81.36,5.8,2.26,15.62,11,15.67H66.11c8.79-.05,10.69-9.87,11-15.67.08-1,.13-2.31.13-3.81,0-1.28,0-2.46-.1-3.38Zm-8.68,6.83c-.39,5.32-2.47,14.3-12.1,14.35H20.86c-9.62,0-11.71-9.06-12.09-14.38-.09-.88-.15-2.12-.15-3.48,0-1.18,0-2.26.11-3.1C9,13.54,10.63,3.22,20.52,3.14H40.83l15.42,0c.13,0,.5,0,.5,0h0c9.89.09,11.57,10.4,11.8,15.47.07.84.11,1.92.11,3.1C68.66,23.09,68.6,24.33,68.51,25.21Z"/><polygon class="cls-2" points="46.61 31.08 62.17 34.76 62.17 34.76 62.17 31.08 46.6 31.08 46.61 31.08"/><path class="cls-2" d="M62.19,7.59a.13.13,0,0,0-.13-.13h0L15.29,12.31h0a.13.13,0,0,0-.13.13.13.13,0,0,0,.08.13h0L36.2,16.89c1.92.31,3.33,1.49,3.25,2.81-.06,1-1,1.83-2.25,2.2l-.16,0-.11,0-.54.1L15.3,25.76h0a.14.14,0,0,0-.14.14.13.13,0,0,0,.14.13h0l46.76-4.85h0a.13.13,0,0,0,.1-.13.14.14,0,0,0-.11-.13h0L41.44,16.67A8.79,8.79,0,0,1,39,15.82a2.39,2.39,0,0,1-1.16-2c.08-1.21,1.37-2.15,3.06-2.36L62.08,7.73h0A.14.14,0,0,0,62.19,7.59Z"/><path class="cls-2" d="M62.08,35.48h0L41,30.52h0c-1.31-.34-2.22-1.21-2.16-2.16s1-1.68,2.33-1.88l20.89-4.17h0a.15.15,0,0,0,.11-.14.14.14,0,0,0-.14-.13h0L15.29,27.11h0a.13.13,0,0,0-.13.14.12.12,0,0,0,.07.12L62,35.75h0a.14.14,0,0,0,.14-.14.15.15,0,0,0-.11-.13ZM15.3,27.11Z"/></g></g></svg>