<?xml version="1.0" encoding="utf-8"?>
<!-- Generator: Adobe Illustrator 24.1.2, SVG Export Plug-In . SVG Version: 6.00 Build 0)  -->
<svg version="1.1" id="Capa_1" xmlns="http://www.w3.org/2000/svg" xmlns:xlink="http://www.w3.org/1999/xlink" x="0px" y="0px"
	 viewBox="0 0 288 266.1" style="enable-background:new 0 0 288 266.1;" xml:space="preserve">
<style type="text/css">
	.st0{fill:none;stroke:#FFFFFF;stroke-width:9;stroke-linecap:round;stroke-linejoin:round;stroke-miterlimit:10;}
</style>
<g>
	<polygon class="st0" points="144.6,19.7 124.3,41.5 151.5,41.5 163.8,41.5 	"/>
	<polygon class="st0" points="28.1,223.1 57.3,229.7 43.5,206.1 37.3,195.6 	"/>
	<polygon class="st0" points="260.9,224.5 252.2,196 238.5,219.5 232.4,230.2 	"/>
	<path class="st0" d="M144.6,75.1l-68.9,39.3V196l67.5,39.8l71.1-40.3v-79.7l-68.2-40.7"/>
	<polyline class="st0" points="214.3,115.9 144.6,155.5 145,234.8 	"/>
	<path class="st0" d="M145,235.8"/>
	<path class="st0" d="M156.2,243.9"/>
	<line class="st0" x1="75.7" y1="114.4" x2="144.6" y2="155.5"/>
	<line class="st0" x1="75.7" y1="196" x2="47.6" y2="213.1"/>
	<line class="st0" x1="214.3" y1="195.6" x2="242.6" y2="212.6"/>
	<line class="st0" x1="144.6" y1="75.1" x2="144.6" y2="41.5"/>
</g>
</svg>
