<?xml version="1.0" encoding="utf-8"?>
<!-- Generator: Adobe Illustrator 25.0.1, SVG Export Plug-In . SVG Version: 6.00 Build 0)  -->
<svg version="1.1" id="Capa_1" xmlns="http://www.w3.org/2000/svg" xmlns:xlink="http://www.w3.org/1999/xlink" x="0px" y="0px"
	 viewBox="0 0 288 266.1" style="enable-background:new 0 0 288 266.1;" xml:space="preserve">
<style type="text/css">
	.st0{fill:none;stroke:#000000;stroke-width:6;stroke-linecap:round;stroke-linejoin:round;stroke-miterlimit:10;}
</style>
<g>
	<rect x="28.8" y="30" class="st0" width="228.5" height="25.8"/>
	<rect x="28.8" y="76.3" class="st0" width="228.5" height="23.3"/>
	<rect x="28.8" y="99.6" class="st0" width="228.5" height="23.3"/>
	<rect x="28.8" y="145.3" class="st0" width="228.5" height="23.3"/>
	<rect x="28.8" y="168.6" class="st0" width="228.5" height="23.3"/>
	<rect x="28.8" y="213.7" class="st0" width="228.5" height="23.3"/>
	<rect x="44" y="191.9" class="st0" width="19.3" height="21.8"/>
	<rect x="103.6" y="191.9" class="st0" width="19.3" height="21.8"/>
	<rect x="163.2" y="191.9" class="st0" width="19.3" height="21.8"/>
	<rect x="222.7" y="191.9" class="st0" width="19.3" height="21.8"/>
	<rect x="44" y="122.9" class="st0" width="19.3" height="22.4"/>
	<rect x="103.6" y="122.9" class="st0" width="19.3" height="22.4"/>
	<rect x="163.2" y="122.9" class="st0" width="19.3" height="22.4"/>
	<rect x="222.7" y="122.9" class="st0" width="19.3" height="22.4"/>
	<rect x="44" y="55.8" class="st0" width="19.3" height="20.5"/>
	<rect x="103.6" y="55.8" class="st0" width="19.3" height="20.5"/>
	<rect x="163.2" y="55.8" class="st0" width="19.3" height="20.5"/>
	<rect x="222.7" y="55.8" class="st0" width="19.3" height="20.5"/>
	<circle cx="41" cy="43" r="3.3"/>
	<circle cx="245.3" cy="43" r="3.3"/>
	<circle cx="41" cy="88" r="3.3"/>
	<circle cx="245.3" cy="88" r="3.3"/>
	<circle cx="41" cy="111.4" r="3.3"/>
	<circle cx="245.3" cy="111.4" r="3.3"/>
	<circle cx="41" cy="156.8" r="3.3"/>
	<circle cx="245.3" cy="156.8" r="3.3"/>
	<circle cx="41" cy="179.5" r="3.3"/>
	<circle cx="245.3" cy="179.5" r="3.3"/>
	<circle cx="41" cy="225.3" r="3.3"/>
	<circle cx="245.3" cy="225.3" r="3.3"/>
</g>
</svg>
