<?xml version="1.0" encoding="utf-8"?>
<!-- Generator: Adobe Illustrator 24.1.2, SVG Export Plug-In . SVG Version: 6.00 Build 0)  -->
<svg version="1.1" id="Capa_1" xmlns="http://www.w3.org/2000/svg" xmlns:xlink="http://www.w3.org/1999/xlink" x="0px" y="0px"
	 viewBox="0 0 288 266.1" style="enable-background:new 0 0 288 266.1;" xml:space="preserve">
<style type="text/css">
	.st0{fill:none;stroke:#FFFFFF;stroke-width:11;stroke-miterlimit:10;}
</style>
<path class="st0" d="M128.3,48.9L34,202.6c-5.7,9.4,1,21.4,12,21.4h188.5c11,0,17.7-12,12-21.4L152.2,48.9
	C146.7,39.9,133.8,39.9,128.3,48.9z"/>
<g>
	<path class="st0" d="M148.7,94.8l-3.3,65.5c-0.1,2.9-2.6,5.1-5.5,5c-2.7-0.1-4.8-2.3-5-5l-3.3-65.5c-0.2-4.7,3.4-8.7,8.1-8.9
		c4.7-0.2,8.7,3.4,8.9,8.1C148.8,94.3,148.8,94.6,148.7,94.8z"/>
</g>
<circle class="st0" cx="140.2" cy="183.9" r="11.7"/>
</svg>
