<?xml version="1.0" encoding="utf-8"?>
<!-- Generator: Adobe Illustrator 24.1.2, SVG Export Plug-In . SVG Version: 6.00 Build 0)  -->
<svg version="1.1" id="Capa_1" xmlns="http://www.w3.org/2000/svg" xmlns:xlink="http://www.w3.org/1999/xlink" x="0px" y="0px"
	 viewBox="0 0 288 266.1" style="enable-background:new 0 0 288 266.1;" xml:space="preserve">
<style type="text/css">
	.st0{fill:none;stroke:#FFFFFF;stroke-width:2;stroke-linecap:round;stroke-linejoin:round;stroke-miterlimit:10;}
</style>
<g>
	<path class="st0" d="M77.5,25.5C72.7,38.3,68,51,63.2,63.8c0.4,48.8,0.9,97.7,1.3,146.5h161.6V63.3l-15.5-37.8H77.5z"/>
	<path class="st0" d="M70.2,44.6l148.2,0"/>
	<line class="st0" x1="144.3" y1="25.5" x2="144.3" y2="210.3"/>
	<path class="st0" d="M226.1,63.3"/>
	<line class="st0" x1="226.1" y1="63.3" x2="63.2" y2="63.8"/>
	<rect x="77.7" y="77.5" class="st0" width="22.5" height="19.7"/>
	<rect x="158.8" y="77.5" class="st0" width="22.5" height="19.7"/>
	<rect x="158.8" y="151.3" class="st0" width="22.5" height="19.7"/>
	<rect x="77.7" y="151.3" class="st0" width="22.5" height="19.7"/>
	<line class="st0" x1="63.9" y1="136.5" x2="226.1" y2="136.5"/>
	<g>
		<line class="st0" x1="121.7" y1="110.9" x2="130.3" y2="110.9"/>
		<line class="st0" x1="121.7" y1="122.3" x2="130.3" y2="122.3"/>
	</g>
	<g>
		<line class="st0" x1="203" y1="110.9" x2="211.6" y2="110.9"/>
		<line class="st0" x1="203" y1="122.3" x2="211.6" y2="122.3"/>
	</g>
	<g>
		<line class="st0" x1="203" y1="184.7" x2="211.6" y2="184.7"/>
		<line class="st0" x1="203" y1="196.1" x2="211.6" y2="196.1"/>
	</g>
	<g>
		<line class="st0" x1="121.7" y1="184.7" x2="130.3" y2="184.7"/>
		<line class="st0" x1="121.7" y1="196.1" x2="130.3" y2="196.1"/>
	</g>
	<polyline class="st0" points="63.2,151.3 56.2,151.3 37.6,210.3 37.6,240.6 58.8,240.6 59.1,224.6 132.4,224.6 132.4,240.6 
		155.4,240.6 155.4,225.3 228.1,225.3 228.1,240.6 250.4,240.6 250.4,210.3 233.1,151.3 226.1,151.3 	"/>
	<line class="st0" x1="37.6" y1="210.3" x2="250.4" y2="210.3"/>
	<line class="st0" x1="37.6" y1="224.8" x2="250.4" y2="224.8"/>
	<line class="st0" x1="42.1" y1="196" x2="63.9" y2="196"/>
	<line class="st0" x1="47.2" y1="180" x2="63.9" y2="180"/>
	<line class="st0" x1="51.8" y1="165.5" x2="63.9" y2="165.5"/>
	<line class="st0" x1="226.1" y1="165.5" x2="237.2" y2="165.5"/>
	<line class="st0" x1="226.1" y1="181.1" x2="241.5" y2="181.1"/>
	<line class="st0" x1="226.1" y1="196" x2="245.7" y2="196"/>
</g>
</svg>
