<?xml version="1.0" encoding="utf-8"?>
<!-- Generator: Adobe Illustrator 24.1.2, SVG Export Plug-In . SVG Version: 6.00 Build 0)  -->
<svg version="1.1" id="Capa_1" xmlns="http://www.w3.org/2000/svg" xmlns:xlink="http://www.w3.org/1999/xlink" x="0px" y="0px"
	 viewBox="0 0 288 266.1" style="enable-background:new 0 0 288 266.1;" xml:space="preserve">
<style type="text/css">
	.st0{fill:none;stroke:#FFFFFF;stroke-width:13;stroke-miterlimit:10;}
	.st1{fill:#1D1D1B;stroke:#FFFFFF;stroke-width:13;stroke-linecap:round;stroke-linejoin:round;stroke-miterlimit:10;}
</style>
<g>
	<path class="st0" d="M195.5,69.8H89.4c-18.4,0-34,13.6-36.6,31.8c-5.3,37.9-10.7,75.7-16,113.6c-3.1,22.2,14.1,42.1,36.6,42.1
		h139.9c22.7,0,40.1-20.3,36.5-42.7c-6-37.9-11.9-75.8-17.9-113.6C229.2,83.1,213.7,69.8,195.5,69.8z"/>
	<circle class="st0" cx="144.8" cy="37.9" r="27.9"/>
	<g>
		<path class="st1" d="M98.3,129.2h0.5c2.2,0,4,1.8,4,4V161h0.3c1.8-2.6,3.5-4.9,5.2-7.1l19-23.3c0.8-0.9,1.9-1.5,3.1-1.5l0,0
			c3.4,0,5.3,4,3,6.6l-16.3,19.1c-1.2,1.4-1.3,3.4-0.3,4.8l19.8,29.2c1.8,2.7-0.1,6.3-3.3,6.3h-0.4c-1.3,0-2.6-0.7-3.3-1.8
			L112,167.1c-1.5-2.2-4.6-2.4-6.3-0.4l-1.9,2.1c-0.6,0.7-1,1.7-1,2.6v19.7c0,2.2-1.8,4-4,4h-0.5c-2.2,0-4-1.8-4-4v-58
			C94.3,131,96.1,129.2,98.3,129.2z"/>
		<path class="st1" d="M195.9,189.8c0,1.5-1,2.8-2.4,3.3c-4.2,1.3-10.6,2.8-17.9,2.8c-10,0-18.2-2.6-24.7-8.7
			c-5.7-5.5-9.2-14.3-9.2-24.6c0.1-19.7,13.6-34.1,35.7-34.1c5.5,0,10.1,0.9,13.3,1.9c1.8,0.6,2.8,2.4,2.2,4.2l-0.1,0.4
			c-0.6,1.9-2.5,2.9-4.3,2.3c-3-0.9-6.6-1.6-11.3-1.6c-16.1,0-26.5,10-26.5,26.5c0,16.7,10.1,26.6,25.5,26.6c3.7,0,6.7-0.4,8.8-0.9
			c1.5-0.4,2.6-1.8,2.6-3.3v-13.8c0-1.9-1.5-3.4-3.4-3.4h-6.6c-1.9,0-3.4-1.5-3.4-3.4l0,0c0-1.9,1.5-3.4,3.4-3.4h14.9
			c1.9,0,3.4,1.5,3.4,3.4L195.9,189.8L195.9,189.8z"/>
	</g>
</g>
</svg>
